# xmcd CD database file
#
# Track frame offsets:
#	150
#	15098
#	46637
#	78968
#	109093
#	117458
#	144630
#	166460
#	186529
#	211216
#	239753
#	261622
#	288495
#	297471
#	322220
#
# Disc length: 4434 seconds
#
# Revision: 0
# Processed by: cddbd v1.5.2PL0 Copyright (c) Steve Scherf et al.
# Submitted via: CDex 1.51
#
DISCID=ea11500f
DTITLE=Andy Mokrus - Impressions en Suite
DYEAR=2004
DGENRE=Jazz
TTITLE0=Part I
TTITLE1=Part II
TTITLE2=Part II
TTITLE3=Part IV
TTITLE4=Part V
TTITLE5=Part VI
TTITLE6=Part VII
TTITLE7=Part VIII
TTITLE8=Part IX
TTITLE9=Part X
TTITLE10=Part XI
TTITLE11=Part XII
TTITLE12=Part XIII
TTITLE13=Part XIV
TTITLE14=Part XV
EXTD=YEAR: 2004
EXTT0=
EXTT1=
EXTT2=
EXTT3=
EXTT4=
EXTT5=
EXTT6=
EXTT7=
EXTT8=
EXTT9=
EXTT10=
EXTT11=
EXTT12=
EXTT13=
EXTT14=
PLAYORDER=
